<svg width="30" height="31" viewBox="0 0 30 31" fill="none" xmlns="http://www.w3.org/2000/svg">
<circle cx="15" cy="15.5" r="15" fill="url(#paint0_linear_159_556)"/>
<path d="M19.9356 9.5H10.8144C9.78461 9.5 9 10.2846 9 11.3144V20.4356C9 21.4654 9.78461 22.25 10.8144 22.25H19.9356C20.9654 22.25 21.75 21.4654 21.75 20.4356V11.3144C21.75 10.2846 20.9654 9.5 19.9356 9.5ZM15.375 19.7C17.4837 19.7 19.2 18.0327 19.2 16.0221C19.2 15.6788 19.151 15.2865 19.0529 14.9923H20.1317V20.1904C20.1317 20.4356 19.9356 20.6808 19.6413 20.6808H11.1087C10.8635 20.6808 10.6183 20.4846 10.6183 20.1904V14.9433H11.7462C11.6481 15.2865 11.599 15.6298 11.599 15.9731C11.55 18.0327 13.2663 19.7 15.375 19.7ZM15.375 18.2288C14.0019 18.2288 12.9231 17.15 12.9231 15.826C12.9231 14.5019 14.0019 13.4231 15.375 13.4231C16.7481 13.4231 17.8269 14.5019 17.8269 15.826C17.8269 17.199 16.7481 18.2288 15.375 18.2288ZM20.0827 12.9817C20.0827 13.276 19.8375 13.5212 19.5433 13.5212H18.1702C17.876 13.5212 17.6308 13.276 17.6308 12.9817V11.6577C17.6308 11.3635 17.876 11.1183 18.1702 11.1183H19.5433C19.8375 11.1183 20.0827 11.3635 20.0827 11.6577V12.9817Z" fill="white"/>
<defs>
<linearGradient id="paint0_linear_159_556" x1="6.375" y1="27.125" x2="26.25" y2="6.5" gradientUnits="userSpaceOnUse">
<stop stop-color="#EEA054"/>
<stop offset="0.502762" stop-color="#D64763"/>
<stop offset="1" stop-color="#B62A99"/>
</linearGradient>
</defs>
</svg>
