<svg width="24" height="24" viewBox="0 0 24 24" fill="none" xmlns="http://www.w3.org/2000/svg">
<path fill-rule="evenodd" clip-rule="evenodd" d="M21.0014 16.92V19.92C21.0037 20.4831 20.7685 21.0211 20.3535 21.4018C19.9385 21.7825 19.3823 21.9707 18.8214 21.92C15.7442 21.5856 12.7884 20.5341 10.1914 18.85C7.77523 17.3146 5.72674 15.2661 4.19141 12.85C2.50138 10.2412 1.44965 7.27097 1.12141 4.17998C1.07088 3.62085 1.25768 3.06623 1.63617 2.6516C2.01466 2.23697 2.55 2.0005 3.11141 1.99998H6.1114C7.11527 1.9901 7.97091 2.72594 8.1114 3.71998C8.23803 4.68004 8.47285 5.6227 8.81141 6.52998C9.08614 7.26085 8.91042 8.08478 8.3614 8.63998L7.0914 9.90998C8.51496 12.4135 10.5879 14.4864 13.0914 15.91L14.3614 14.64C14.9166 14.091 15.7405 13.9152 16.4714 14.19C17.3787 14.5285 18.3213 14.7634 19.2814 14.89C20.287 15.0318 21.0266 15.9048 21.0014 16.92Z" stroke="#181818" stroke-width="2" stroke-linecap="round" stroke-linejoin="round"/>
</svg>
