<svg width="30" height="31" viewBox="0 0 30 31" fill="none" xmlns="http://www.w3.org/2000/svg">
<circle cx="15" cy="15.5" r="15" fill="#2F89CE"/>
<path d="M7.01303 15.7806L10.4616 17.0665L11.8059 21.3918C11.8644 21.684 12.2151 21.7425 12.4489 21.5671L14.3778 19.989C14.5531 19.8136 14.8454 19.8136 15.0792 19.989L18.5277 22.5023C18.7615 22.6777 19.1122 22.5608 19.1707 22.2685L21.7425 9.99399C21.8009 9.70174 21.5087 9.40949 21.2164 9.52639L7.01303 15.0207C6.66232 15.1376 6.66232 15.6637 7.01303 15.7806ZM11.6306 16.4235L18.4108 12.2735C18.5277 12.2151 18.6446 12.3905 18.5277 12.4489L12.975 17.651C12.7996 17.8263 12.6242 18.0601 12.6242 18.3524L12.4489 19.7552C12.4489 19.9305 12.1566 19.989 12.0982 19.7552L11.3968 17.1834C11.2214 16.8911 11.3384 16.5404 11.6306 16.4235Z" fill="white"/>
</svg>
