<svg width="30" height="31" viewBox="0 0 30 31" fill="none" xmlns="http://www.w3.org/2000/svg">
<circle cx="15" cy="15.5" r="15" fill="#48C95F"/>
<path d="M20.9451 9.54687C19.4634 8.07031 17.4878 7.25 15.4024 7.25C11.0671 7.25 7.55488 10.75 7.55488 15.0703C7.55488 16.4375 7.93902 17.8047 8.59756 18.9531L7.5 23L11.6707 21.9062C12.8232 22.5078 14.0854 22.8359 15.4024 22.8359C19.7378 22.8359 23.25 19.3359 23.25 15.0156C23.1951 12.9922 22.4268 11.0234 20.9451 9.54687ZM19.189 17.8594C19.0244 18.2969 18.2561 18.7344 17.872 18.7891C17.5427 18.8437 17.1037 18.8438 16.6646 18.7344C16.3902 18.625 16.0061 18.5156 15.5671 18.2969C13.5915 17.4766 12.3293 15.5078 12.2195 15.3438C12.1098 15.2344 11.3963 14.3047 11.3963 13.3203C11.3963 12.3359 11.8902 11.8984 12.0549 11.6797C12.2195 11.4609 12.439 11.4609 12.6037 11.4609C12.7134 11.4609 12.878 11.4609 12.9878 11.4609C13.0976 11.4609 13.2622 11.4062 13.4268 11.7891C13.5915 12.1719 13.9756 13.1562 14.0305 13.2109C14.0854 13.3203 14.0854 13.4297 14.0305 13.5391C13.9756 13.6484 13.9207 13.7578 13.811 13.8672C13.7012 13.9766 13.5915 14.1406 13.5366 14.1953C13.4268 14.3047 13.3171 14.4141 13.4268 14.5781C13.5366 14.7969 13.9207 15.3984 14.5244 15.9453C15.2927 16.6016 15.8963 16.8203 16.1159 16.9297C16.3354 17.0391 16.4451 16.9844 16.5549 16.875C16.6646 16.7656 17.0488 16.3281 17.1585 16.1094C17.2683 15.8906 17.4329 15.9453 17.5976 16C17.7622 16.0547 18.75 16.5469 18.9146 16.6562C19.1341 16.7656 19.2439 16.8203 19.2988 16.875C19.3537 17.0391 19.3537 17.4219 19.189 17.8594Z" fill="white"/>
</svg>
